<mxfile host="app.diagrams.net" modified="2022-06-11T04:40:00.729Z" agent="5.0 (Windows NT 10.0; Win64; x64) AppleWebKit/537.36 (KHTML, like Gecko) Chrome/102.0.5005.63 Safari/537.36 Edg/102.0.1245.33" etag="fwCfVpP6xSuxwP5Wlw5T" version="19.0.3" type="github">
  <diagram id="wbaUNDNicFataSMMiU18" name="扩容整体流程">
    <mxGraphModel dx="979" dy="1719" grid="1" gridSize="10" guides="1" tooltips="1" connect="1" arrows="1" fold="1" page="1" pageScale="1" pageWidth="827" pageHeight="1169" background="#F4F1DE" math="0" shadow="0">
      <root>
        <mxCell id="0" />
        <mxCell id="1" parent="0" />
        <mxCell id="wTSnbn3DcDOjPf0Wo8Gv-7" value="" style="shape=table;startSize=0;container=1;collapsible=0;childLayout=tableLayout;rounded=1;sketch=0;fontFamily=Comic Sans MS;fontSize=10;shadow=1;" vertex="1" parent="1">
          <mxGeometry x="150" y="60" width="30" height="230" as="geometry" />
        </mxCell>
        <mxCell id="wTSnbn3DcDOjPf0Wo8Gv-8" value="" style="shape=tableRow;horizontal=0;startSize=0;swimlaneHead=0;swimlaneBody=0;top=0;left=0;bottom=0;right=0;collapsible=0;dropTarget=0;fillColor=none;points=[[0,0.5],[1,0.5]];portConstraint=eastwest;rounded=1;sketch=1;fontFamily=Comic Sans MS;fontSize=20;fontColor=#663300;strokeColor=#F2CC8F;" vertex="1" parent="wTSnbn3DcDOjPf0Wo8Gv-7">
          <mxGeometry width="30" height="28" as="geometry" />
        </mxCell>
        <mxCell id="wTSnbn3DcDOjPf0Wo8Gv-9" value="" style="shape=partialRectangle;html=1;whiteSpace=wrap;connectable=0;overflow=hidden;fillColor=#F2CC8F;top=0;left=0;bottom=0;right=0;pointerEvents=1;rounded=1;sketch=0;fontFamily=Comic Sans MS;fontSize=20;fontColor=#ffffff;strokeColor=#432D57;" vertex="1" parent="wTSnbn3DcDOjPf0Wo8Gv-8">
          <mxGeometry width="30" height="28" as="geometry">
            <mxRectangle width="30" height="28" as="alternateBounds" />
          </mxGeometry>
        </mxCell>
        <mxCell id="wTSnbn3DcDOjPf0Wo8Gv-10" value="" style="shape=tableRow;horizontal=0;startSize=0;swimlaneHead=0;swimlaneBody=0;top=0;left=0;bottom=0;right=0;collapsible=0;dropTarget=0;fillColor=none;points=[[0,0.5],[1,0.5]];portConstraint=eastwest;rounded=1;sketch=1;fontFamily=Comic Sans MS;fontSize=20;fontColor=#663300;strokeColor=#E07A5F;" vertex="1" parent="wTSnbn3DcDOjPf0Wo8Gv-7">
          <mxGeometry y="28" width="30" height="30" as="geometry" />
        </mxCell>
        <mxCell id="wTSnbn3DcDOjPf0Wo8Gv-11" value="" style="shape=partialRectangle;html=1;whiteSpace=wrap;connectable=0;overflow=hidden;fillColor=none;top=0;left=0;bottom=0;right=0;pointerEvents=1;rounded=1;sketch=1;fontFamily=Comic Sans MS;fontSize=20;fontColor=#663300;strokeColor=#E07A5F;" vertex="1" parent="wTSnbn3DcDOjPf0Wo8Gv-10">
          <mxGeometry width="30" height="30" as="geometry">
            <mxRectangle width="30" height="30" as="alternateBounds" />
          </mxGeometry>
        </mxCell>
        <mxCell id="wTSnbn3DcDOjPf0Wo8Gv-12" value="" style="shape=tableRow;horizontal=0;startSize=0;swimlaneHead=0;swimlaneBody=0;top=0;left=0;bottom=0;right=0;collapsible=0;dropTarget=0;fillColor=#76608a;points=[[0,0.5],[1,0.5]];portConstraint=eastwest;rounded=1;sketch=0;fontFamily=Comic Sans MS;fontSize=20;fontColor=#ffffff;strokeColor=#432D57;" vertex="1" parent="wTSnbn3DcDOjPf0Wo8Gv-7">
          <mxGeometry y="58" width="30" height="29" as="geometry" />
        </mxCell>
        <mxCell id="wTSnbn3DcDOjPf0Wo8Gv-13" value="" style="shape=partialRectangle;html=1;whiteSpace=wrap;connectable=0;overflow=hidden;fillColor=#F2CC8F;top=0;left=0;bottom=0;right=0;pointerEvents=1;rounded=1;sketch=0;fontFamily=Comic Sans MS;fontSize=20;fontColor=#000000;strokeColor=#BD7000;" vertex="1" parent="wTSnbn3DcDOjPf0Wo8Gv-12">
          <mxGeometry width="30" height="29" as="geometry">
            <mxRectangle width="30" height="29" as="alternateBounds" />
          </mxGeometry>
        </mxCell>
        <mxCell id="wTSnbn3DcDOjPf0Wo8Gv-14" value="" style="shape=tableRow;horizontal=0;startSize=0;swimlaneHead=0;swimlaneBody=0;top=0;left=0;bottom=0;right=0;collapsible=0;dropTarget=0;fillColor=none;points=[[0,0.5],[1,0.5]];portConstraint=eastwest;rounded=1;sketch=1;fontFamily=Comic Sans MS;fontSize=20;fontColor=#663300;strokeColor=#E07A5F;" vertex="1" parent="wTSnbn3DcDOjPf0Wo8Gv-7">
          <mxGeometry y="87" width="30" height="28" as="geometry" />
        </mxCell>
        <mxCell id="wTSnbn3DcDOjPf0Wo8Gv-15" value="" style="shape=partialRectangle;html=1;whiteSpace=wrap;connectable=0;overflow=hidden;fillColor=none;top=0;left=0;bottom=0;right=0;pointerEvents=1;rounded=1;sketch=1;fontFamily=Comic Sans MS;fontSize=20;fontColor=#663300;strokeColor=#E07A5F;" vertex="1" parent="wTSnbn3DcDOjPf0Wo8Gv-14">
          <mxGeometry width="30" height="28" as="geometry">
            <mxRectangle width="30" height="28" as="alternateBounds" />
          </mxGeometry>
        </mxCell>
        <mxCell id="wTSnbn3DcDOjPf0Wo8Gv-16" value="" style="shape=tableRow;horizontal=0;startSize=0;swimlaneHead=0;swimlaneBody=0;top=0;left=0;bottom=0;right=0;collapsible=0;dropTarget=0;fillColor=none;points=[[0,0.5],[1,0.5]];portConstraint=eastwest;rounded=1;sketch=1;fontFamily=Comic Sans MS;fontSize=20;fontColor=#663300;strokeColor=#E07A5F;" vertex="1" parent="wTSnbn3DcDOjPf0Wo8Gv-7">
          <mxGeometry y="115" width="30" height="28" as="geometry" />
        </mxCell>
        <mxCell id="wTSnbn3DcDOjPf0Wo8Gv-17" value="" style="shape=partialRectangle;html=1;whiteSpace=wrap;connectable=0;overflow=hidden;fillColor=none;top=0;left=0;bottom=0;right=0;pointerEvents=1;rounded=1;sketch=1;fontFamily=Comic Sans MS;fontSize=20;fontColor=#663300;strokeColor=#E07A5F;" vertex="1" parent="wTSnbn3DcDOjPf0Wo8Gv-16">
          <mxGeometry width="30" height="28" as="geometry">
            <mxRectangle width="30" height="28" as="alternateBounds" />
          </mxGeometry>
        </mxCell>
        <mxCell id="wTSnbn3DcDOjPf0Wo8Gv-18" value="" style="shape=tableRow;horizontal=0;startSize=0;swimlaneHead=0;swimlaneBody=0;top=0;left=0;bottom=0;right=0;collapsible=0;dropTarget=0;fillColor=none;points=[[0,0.5],[1,0.5]];portConstraint=eastwest;rounded=1;sketch=1;fontFamily=Comic Sans MS;fontSize=20;fontColor=#663300;strokeColor=#E07A5F;" vertex="1" parent="wTSnbn3DcDOjPf0Wo8Gv-7">
          <mxGeometry y="143" width="30" height="30" as="geometry" />
        </mxCell>
        <mxCell id="wTSnbn3DcDOjPf0Wo8Gv-19" value="" style="shape=partialRectangle;html=1;whiteSpace=wrap;connectable=0;overflow=hidden;fillColor=#F2CC8F;top=0;left=0;bottom=0;right=0;pointerEvents=1;rounded=1;sketch=0;fontFamily=Comic Sans MS;fontSize=20;fontColor=#663300;strokeColor=#000000;" vertex="1" parent="wTSnbn3DcDOjPf0Wo8Gv-18">
          <mxGeometry width="30" height="30" as="geometry">
            <mxRectangle width="30" height="30" as="alternateBounds" />
          </mxGeometry>
        </mxCell>
        <mxCell id="wTSnbn3DcDOjPf0Wo8Gv-20" value="" style="shape=tableRow;horizontal=0;startSize=0;swimlaneHead=0;swimlaneBody=0;top=0;left=0;bottom=0;right=0;collapsible=0;dropTarget=0;fillColor=none;points=[[0,0.5],[1,0.5]];portConstraint=eastwest;rounded=1;sketch=1;fontFamily=Comic Sans MS;fontSize=20;fontColor=#663300;strokeColor=#E07A5F;" vertex="1" parent="wTSnbn3DcDOjPf0Wo8Gv-7">
          <mxGeometry y="173" width="30" height="29" as="geometry" />
        </mxCell>
        <mxCell id="wTSnbn3DcDOjPf0Wo8Gv-21" value="" style="shape=partialRectangle;html=1;whiteSpace=wrap;connectable=0;overflow=hidden;fillColor=none;top=0;left=0;bottom=0;right=0;pointerEvents=1;rounded=1;sketch=1;fontFamily=Comic Sans MS;fontSize=20;fontColor=#663300;strokeColor=#E07A5F;" vertex="1" parent="wTSnbn3DcDOjPf0Wo8Gv-20">
          <mxGeometry width="30" height="29" as="geometry">
            <mxRectangle width="30" height="29" as="alternateBounds" />
          </mxGeometry>
        </mxCell>
        <mxCell id="wTSnbn3DcDOjPf0Wo8Gv-22" value="" style="shape=tableRow;horizontal=0;startSize=0;swimlaneHead=0;swimlaneBody=0;top=0;left=0;bottom=0;right=0;collapsible=0;dropTarget=0;fillColor=none;points=[[0,0.5],[1,0.5]];portConstraint=eastwest;rounded=1;sketch=1;fontFamily=Comic Sans MS;fontSize=20;fontColor=#663300;strokeColor=#E07A5F;" vertex="1" parent="wTSnbn3DcDOjPf0Wo8Gv-7">
          <mxGeometry y="202" width="30" height="28" as="geometry" />
        </mxCell>
        <mxCell id="wTSnbn3DcDOjPf0Wo8Gv-23" value="" style="shape=partialRectangle;html=1;whiteSpace=wrap;connectable=0;overflow=hidden;fillColor=#000000;top=0;left=0;bottom=0;right=0;pointerEvents=1;rounded=1;sketch=0;fontFamily=Comic Sans MS;fontSize=20;fontColor=#663300;strokeColor=#E07A5F;" vertex="1" parent="wTSnbn3DcDOjPf0Wo8Gv-22">
          <mxGeometry width="30" height="28" as="geometry">
            <mxRectangle width="30" height="28" as="alternateBounds" />
          </mxGeometry>
        </mxCell>
        <mxCell id="wTSnbn3DcDOjPf0Wo8Gv-24" value="" style="shape=table;startSize=0;container=1;collapsible=0;childLayout=tableLayout;rounded=1;sketch=1;fontFamily=Comic Sans MS;fontSize=20;" vertex="1" parent="1">
          <mxGeometry x="150" y="290" width="30" height="180" as="geometry" />
        </mxCell>
        <mxCell id="wTSnbn3DcDOjPf0Wo8Gv-25" value="" style="shape=tableRow;horizontal=0;startSize=0;swimlaneHead=0;swimlaneBody=0;top=0;left=0;bottom=0;right=0;collapsible=0;dropTarget=0;fillColor=none;points=[[0,0.5],[1,0.5]];portConstraint=eastwest;rounded=1;sketch=1;fontFamily=Comic Sans MS;fontSize=20;fontColor=#663300;strokeColor=#E07A5F;" vertex="1" parent="wTSnbn3DcDOjPf0Wo8Gv-24">
          <mxGeometry width="30" height="22" as="geometry" />
        </mxCell>
        <mxCell id="wTSnbn3DcDOjPf0Wo8Gv-26" value="" style="shape=partialRectangle;html=1;whiteSpace=wrap;connectable=0;overflow=hidden;fillColor=none;top=0;left=0;bottom=0;right=0;pointerEvents=1;rounded=1;sketch=1;fontFamily=Comic Sans MS;fontSize=20;fontColor=#663300;strokeColor=#E07A5F;" vertex="1" parent="wTSnbn3DcDOjPf0Wo8Gv-25">
          <mxGeometry width="30" height="22" as="geometry">
            <mxRectangle width="30" height="22" as="alternateBounds" />
          </mxGeometry>
        </mxCell>
        <mxCell id="wTSnbn3DcDOjPf0Wo8Gv-27" value="" style="shape=tableRow;horizontal=0;startSize=0;swimlaneHead=0;swimlaneBody=0;top=0;left=0;bottom=0;right=0;collapsible=0;dropTarget=0;fillColor=none;points=[[0,0.5],[1,0.5]];portConstraint=eastwest;rounded=1;sketch=1;fontFamily=Comic Sans MS;fontSize=20;fontColor=#663300;strokeColor=#E07A5F;" vertex="1" parent="wTSnbn3DcDOjPf0Wo8Gv-24">
          <mxGeometry y="22" width="30" height="23" as="geometry" />
        </mxCell>
        <mxCell id="wTSnbn3DcDOjPf0Wo8Gv-28" value="" style="shape=partialRectangle;html=1;whiteSpace=wrap;connectable=0;overflow=hidden;fillColor=none;top=0;left=0;bottom=0;right=0;pointerEvents=1;rounded=1;sketch=1;fontFamily=Comic Sans MS;fontSize=20;fontColor=#663300;strokeColor=#E07A5F;" vertex="1" parent="wTSnbn3DcDOjPf0Wo8Gv-27">
          <mxGeometry width="30" height="23" as="geometry">
            <mxRectangle width="30" height="23" as="alternateBounds" />
          </mxGeometry>
        </mxCell>
        <mxCell id="wTSnbn3DcDOjPf0Wo8Gv-29" value="" style="shape=tableRow;horizontal=0;startSize=0;swimlaneHead=0;swimlaneBody=0;top=0;left=0;bottom=0;right=0;collapsible=0;dropTarget=0;fillColor=none;points=[[0,0.5],[1,0.5]];portConstraint=eastwest;rounded=1;sketch=1;fontFamily=Comic Sans MS;fontSize=20;fontColor=#663300;strokeColor=#E07A5F;" vertex="1" parent="wTSnbn3DcDOjPf0Wo8Gv-24">
          <mxGeometry y="45" width="30" height="23" as="geometry" />
        </mxCell>
        <mxCell id="wTSnbn3DcDOjPf0Wo8Gv-30" value="" style="shape=partialRectangle;html=1;whiteSpace=wrap;connectable=0;overflow=hidden;fillColor=none;top=0;left=0;bottom=0;right=0;pointerEvents=1;rounded=1;sketch=1;fontFamily=Comic Sans MS;fontSize=20;fontColor=#663300;strokeColor=#E07A5F;" vertex="1" parent="wTSnbn3DcDOjPf0Wo8Gv-29">
          <mxGeometry width="30" height="23" as="geometry">
            <mxRectangle width="30" height="23" as="alternateBounds" />
          </mxGeometry>
        </mxCell>
        <mxCell id="wTSnbn3DcDOjPf0Wo8Gv-31" value="" style="shape=tableRow;horizontal=0;startSize=0;swimlaneHead=0;swimlaneBody=0;top=0;left=0;bottom=0;right=0;collapsible=0;dropTarget=0;fillColor=none;points=[[0,0.5],[1,0.5]];portConstraint=eastwest;rounded=1;sketch=1;fontFamily=Comic Sans MS;fontSize=20;fontColor=#663300;strokeColor=#E07A5F;" vertex="1" parent="wTSnbn3DcDOjPf0Wo8Gv-24">
          <mxGeometry y="68" width="30" height="22" as="geometry" />
        </mxCell>
        <mxCell id="wTSnbn3DcDOjPf0Wo8Gv-32" value="" style="shape=partialRectangle;html=1;whiteSpace=wrap;connectable=0;overflow=hidden;fillColor=none;top=0;left=0;bottom=0;right=0;pointerEvents=1;rounded=1;sketch=1;fontFamily=Comic Sans MS;fontSize=20;fontColor=#663300;strokeColor=#E07A5F;" vertex="1" parent="wTSnbn3DcDOjPf0Wo8Gv-31">
          <mxGeometry width="30" height="22" as="geometry">
            <mxRectangle width="30" height="22" as="alternateBounds" />
          </mxGeometry>
        </mxCell>
        <mxCell id="wTSnbn3DcDOjPf0Wo8Gv-33" value="" style="shape=tableRow;horizontal=0;startSize=0;swimlaneHead=0;swimlaneBody=0;top=0;left=0;bottom=0;right=0;collapsible=0;dropTarget=0;fillColor=none;points=[[0,0.5],[1,0.5]];portConstraint=eastwest;rounded=1;sketch=1;fontFamily=Comic Sans MS;fontSize=20;fontColor=#663300;strokeColor=#E07A5F;" vertex="1" parent="wTSnbn3DcDOjPf0Wo8Gv-24">
          <mxGeometry y="90" width="30" height="22" as="geometry" />
        </mxCell>
        <mxCell id="wTSnbn3DcDOjPf0Wo8Gv-34" value="" style="shape=partialRectangle;html=1;whiteSpace=wrap;connectable=0;overflow=hidden;fillColor=none;top=0;left=0;bottom=0;right=0;pointerEvents=1;rounded=1;sketch=1;fontFamily=Comic Sans MS;fontSize=20;fontColor=#663300;strokeColor=#E07A5F;" vertex="1" parent="wTSnbn3DcDOjPf0Wo8Gv-33">
          <mxGeometry width="30" height="22" as="geometry">
            <mxRectangle width="30" height="22" as="alternateBounds" />
          </mxGeometry>
        </mxCell>
        <mxCell id="wTSnbn3DcDOjPf0Wo8Gv-35" value="" style="shape=tableRow;horizontal=0;startSize=0;swimlaneHead=0;swimlaneBody=0;top=0;left=0;bottom=0;right=0;collapsible=0;dropTarget=0;fillColor=none;points=[[0,0.5],[1,0.5]];portConstraint=eastwest;rounded=1;sketch=1;fontFamily=Comic Sans MS;fontSize=20;fontColor=#663300;strokeColor=#E07A5F;" vertex="1" parent="wTSnbn3DcDOjPf0Wo8Gv-24">
          <mxGeometry y="112" width="30" height="23" as="geometry" />
        </mxCell>
        <mxCell id="wTSnbn3DcDOjPf0Wo8Gv-36" value="" style="shape=partialRectangle;html=1;whiteSpace=wrap;connectable=0;overflow=hidden;fillColor=none;top=0;left=0;bottom=0;right=0;pointerEvents=1;rounded=1;sketch=1;fontFamily=Comic Sans MS;fontSize=20;fontColor=#663300;strokeColor=#E07A5F;" vertex="1" parent="wTSnbn3DcDOjPf0Wo8Gv-35">
          <mxGeometry width="30" height="23" as="geometry">
            <mxRectangle width="30" height="23" as="alternateBounds" />
          </mxGeometry>
        </mxCell>
        <mxCell id="wTSnbn3DcDOjPf0Wo8Gv-37" value="" style="shape=tableRow;horizontal=0;startSize=0;swimlaneHead=0;swimlaneBody=0;top=0;left=0;bottom=0;right=0;collapsible=0;dropTarget=0;fillColor=none;points=[[0,0.5],[1,0.5]];portConstraint=eastwest;rounded=1;sketch=1;fontFamily=Comic Sans MS;fontSize=20;fontColor=#663300;strokeColor=#E07A5F;" vertex="1" parent="wTSnbn3DcDOjPf0Wo8Gv-24">
          <mxGeometry y="135" width="30" height="23" as="geometry" />
        </mxCell>
        <mxCell id="wTSnbn3DcDOjPf0Wo8Gv-38" value="" style="shape=partialRectangle;html=1;whiteSpace=wrap;connectable=0;overflow=hidden;fillColor=none;top=0;left=0;bottom=0;right=0;pointerEvents=1;rounded=1;sketch=1;fontFamily=Comic Sans MS;fontSize=20;fontColor=#663300;strokeColor=#E07A5F;" vertex="1" parent="wTSnbn3DcDOjPf0Wo8Gv-37">
          <mxGeometry width="30" height="23" as="geometry">
            <mxRectangle width="30" height="23" as="alternateBounds" />
          </mxGeometry>
        </mxCell>
        <mxCell id="wTSnbn3DcDOjPf0Wo8Gv-39" value="" style="shape=tableRow;horizontal=0;startSize=0;swimlaneHead=0;swimlaneBody=0;top=0;left=0;bottom=0;right=0;collapsible=0;dropTarget=0;fillColor=none;points=[[0,0.5],[1,0.5]];portConstraint=eastwest;rounded=1;sketch=1;fontFamily=Comic Sans MS;fontSize=20;fontColor=#663300;strokeColor=#E07A5F;" vertex="1" parent="wTSnbn3DcDOjPf0Wo8Gv-24">
          <mxGeometry y="158" width="30" height="22" as="geometry" />
        </mxCell>
        <mxCell id="wTSnbn3DcDOjPf0Wo8Gv-40" value="" style="shape=partialRectangle;html=1;whiteSpace=wrap;connectable=0;overflow=hidden;fillColor=none;top=0;left=0;bottom=0;right=0;pointerEvents=1;rounded=1;sketch=1;fontFamily=Comic Sans MS;fontSize=20;fontColor=#663300;strokeColor=#E07A5F;" vertex="1" parent="wTSnbn3DcDOjPf0Wo8Gv-39">
          <mxGeometry width="30" height="22" as="geometry">
            <mxRectangle width="30" height="22" as="alternateBounds" />
          </mxGeometry>
        </mxCell>
        <mxCell id="wTSnbn3DcDOjPf0Wo8Gv-41" value="" style="shape=table;startSize=0;container=1;collapsible=0;childLayout=tableLayout;rounded=1;sketch=1;fontFamily=Comic Sans MS;fontSize=20;" vertex="1" parent="1">
          <mxGeometry x="150" y="470" width="30" height="200" as="geometry" />
        </mxCell>
        <mxCell id="wTSnbn3DcDOjPf0Wo8Gv-42" value="" style="shape=tableRow;horizontal=0;startSize=0;swimlaneHead=0;swimlaneBody=0;top=0;left=0;bottom=0;right=0;collapsible=0;dropTarget=0;fillColor=none;points=[[0,0.5],[1,0.5]];portConstraint=eastwest;rounded=1;sketch=1;fontFamily=Comic Sans MS;fontSize=20;fontColor=#663300;strokeColor=#E07A5F;" vertex="1" parent="wTSnbn3DcDOjPf0Wo8Gv-41">
          <mxGeometry width="30" height="25" as="geometry" />
        </mxCell>
        <mxCell id="wTSnbn3DcDOjPf0Wo8Gv-43" value="" style="shape=partialRectangle;html=1;whiteSpace=wrap;connectable=0;overflow=hidden;fillColor=none;top=0;left=0;bottom=0;right=0;pointerEvents=1;rounded=1;sketch=1;fontFamily=Comic Sans MS;fontSize=20;fontColor=#663300;strokeColor=#E07A5F;" vertex="1" parent="wTSnbn3DcDOjPf0Wo8Gv-42">
          <mxGeometry width="30" height="25" as="geometry">
            <mxRectangle width="30" height="25" as="alternateBounds" />
          </mxGeometry>
        </mxCell>
        <mxCell id="wTSnbn3DcDOjPf0Wo8Gv-44" value="" style="shape=tableRow;horizontal=0;startSize=0;swimlaneHead=0;swimlaneBody=0;top=0;left=0;bottom=0;right=0;collapsible=0;dropTarget=0;fillColor=none;points=[[0,0.5],[1,0.5]];portConstraint=eastwest;rounded=1;sketch=1;fontFamily=Comic Sans MS;fontSize=20;fontColor=#663300;strokeColor=#E07A5F;" vertex="1" parent="wTSnbn3DcDOjPf0Wo8Gv-41">
          <mxGeometry y="25" width="30" height="25" as="geometry" />
        </mxCell>
        <mxCell id="wTSnbn3DcDOjPf0Wo8Gv-45" value="" style="shape=partialRectangle;html=1;whiteSpace=wrap;connectable=0;overflow=hidden;fillColor=none;top=0;left=0;bottom=0;right=0;pointerEvents=1;rounded=1;sketch=1;fontFamily=Comic Sans MS;fontSize=20;fontColor=#663300;strokeColor=#E07A5F;" vertex="1" parent="wTSnbn3DcDOjPf0Wo8Gv-44">
          <mxGeometry width="30" height="25" as="geometry">
            <mxRectangle width="30" height="25" as="alternateBounds" />
          </mxGeometry>
        </mxCell>
        <mxCell id="wTSnbn3DcDOjPf0Wo8Gv-46" value="" style="shape=tableRow;horizontal=0;startSize=0;swimlaneHead=0;swimlaneBody=0;top=0;left=0;bottom=0;right=0;collapsible=0;dropTarget=0;fillColor=none;points=[[0,0.5],[1,0.5]];portConstraint=eastwest;rounded=1;sketch=1;fontFamily=Comic Sans MS;fontSize=20;fontColor=#663300;strokeColor=#E07A5F;" vertex="1" parent="wTSnbn3DcDOjPf0Wo8Gv-41">
          <mxGeometry y="50" width="30" height="25" as="geometry" />
        </mxCell>
        <mxCell id="wTSnbn3DcDOjPf0Wo8Gv-47" value="" style="shape=partialRectangle;html=1;whiteSpace=wrap;connectable=0;overflow=hidden;fillColor=none;top=0;left=0;bottom=0;right=0;pointerEvents=1;rounded=1;sketch=1;fontFamily=Comic Sans MS;fontSize=20;fontColor=#663300;strokeColor=#E07A5F;" vertex="1" parent="wTSnbn3DcDOjPf0Wo8Gv-46">
          <mxGeometry width="30" height="25" as="geometry">
            <mxRectangle width="30" height="25" as="alternateBounds" />
          </mxGeometry>
        </mxCell>
        <mxCell id="wTSnbn3DcDOjPf0Wo8Gv-48" value="" style="shape=tableRow;horizontal=0;startSize=0;swimlaneHead=0;swimlaneBody=0;top=0;left=0;bottom=0;right=0;collapsible=0;dropTarget=0;fillColor=none;points=[[0,0.5],[1,0.5]];portConstraint=eastwest;rounded=1;sketch=1;fontFamily=Comic Sans MS;fontSize=20;fontColor=#663300;strokeColor=#E07A5F;" vertex="1" parent="wTSnbn3DcDOjPf0Wo8Gv-41">
          <mxGeometry y="75" width="30" height="25" as="geometry" />
        </mxCell>
        <mxCell id="wTSnbn3DcDOjPf0Wo8Gv-49" value="" style="shape=partialRectangle;html=1;whiteSpace=wrap;connectable=0;overflow=hidden;fillColor=none;top=0;left=0;bottom=0;right=0;pointerEvents=1;rounded=1;sketch=1;fontFamily=Comic Sans MS;fontSize=20;fontColor=#663300;strokeColor=#E07A5F;" vertex="1" parent="wTSnbn3DcDOjPf0Wo8Gv-48">
          <mxGeometry width="30" height="25" as="geometry">
            <mxRectangle width="30" height="25" as="alternateBounds" />
          </mxGeometry>
        </mxCell>
        <mxCell id="wTSnbn3DcDOjPf0Wo8Gv-50" value="" style="shape=tableRow;horizontal=0;startSize=0;swimlaneHead=0;swimlaneBody=0;top=0;left=0;bottom=0;right=0;collapsible=0;dropTarget=0;fillColor=none;points=[[0,0.5],[1,0.5]];portConstraint=eastwest;rounded=1;sketch=1;fontFamily=Comic Sans MS;fontSize=20;fontColor=#663300;strokeColor=#E07A5F;" vertex="1" parent="wTSnbn3DcDOjPf0Wo8Gv-41">
          <mxGeometry y="100" width="30" height="25" as="geometry" />
        </mxCell>
        <mxCell id="wTSnbn3DcDOjPf0Wo8Gv-51" value="" style="shape=partialRectangle;html=1;whiteSpace=wrap;connectable=0;overflow=hidden;fillColor=none;top=0;left=0;bottom=0;right=0;pointerEvents=1;rounded=1;sketch=1;fontFamily=Comic Sans MS;fontSize=20;fontColor=#663300;strokeColor=#E07A5F;" vertex="1" parent="wTSnbn3DcDOjPf0Wo8Gv-50">
          <mxGeometry width="30" height="25" as="geometry">
            <mxRectangle width="30" height="25" as="alternateBounds" />
          </mxGeometry>
        </mxCell>
        <mxCell id="wTSnbn3DcDOjPf0Wo8Gv-52" value="" style="shape=tableRow;horizontal=0;startSize=0;swimlaneHead=0;swimlaneBody=0;top=0;left=0;bottom=0;right=0;collapsible=0;dropTarget=0;fillColor=none;points=[[0,0.5],[1,0.5]];portConstraint=eastwest;rounded=1;sketch=1;fontFamily=Comic Sans MS;fontSize=20;fontColor=#663300;strokeColor=#E07A5F;" vertex="1" parent="wTSnbn3DcDOjPf0Wo8Gv-41">
          <mxGeometry y="125" width="30" height="25" as="geometry" />
        </mxCell>
        <mxCell id="wTSnbn3DcDOjPf0Wo8Gv-53" value="" style="shape=partialRectangle;html=1;whiteSpace=wrap;connectable=0;overflow=hidden;fillColor=none;top=0;left=0;bottom=0;right=0;pointerEvents=1;rounded=1;sketch=1;fontFamily=Comic Sans MS;fontSize=20;fontColor=#663300;strokeColor=#E07A5F;" vertex="1" parent="wTSnbn3DcDOjPf0Wo8Gv-52">
          <mxGeometry width="30" height="25" as="geometry">
            <mxRectangle width="30" height="25" as="alternateBounds" />
          </mxGeometry>
        </mxCell>
        <mxCell id="wTSnbn3DcDOjPf0Wo8Gv-54" value="" style="shape=tableRow;horizontal=0;startSize=0;swimlaneHead=0;swimlaneBody=0;top=0;left=0;bottom=0;right=0;collapsible=0;dropTarget=0;fillColor=none;points=[[0,0.5],[1,0.5]];portConstraint=eastwest;rounded=1;sketch=1;fontFamily=Comic Sans MS;fontSize=20;fontColor=#663300;strokeColor=#E07A5F;" vertex="1" parent="wTSnbn3DcDOjPf0Wo8Gv-41">
          <mxGeometry y="150" width="30" height="25" as="geometry" />
        </mxCell>
        <mxCell id="wTSnbn3DcDOjPf0Wo8Gv-55" value="" style="shape=partialRectangle;html=1;whiteSpace=wrap;connectable=0;overflow=hidden;fillColor=none;top=0;left=0;bottom=0;right=0;pointerEvents=1;rounded=1;sketch=1;fontFamily=Comic Sans MS;fontSize=20;fontColor=#663300;strokeColor=#E07A5F;" vertex="1" parent="wTSnbn3DcDOjPf0Wo8Gv-54">
          <mxGeometry width="30" height="25" as="geometry">
            <mxRectangle width="30" height="25" as="alternateBounds" />
          </mxGeometry>
        </mxCell>
        <mxCell id="wTSnbn3DcDOjPf0Wo8Gv-56" value="" style="shape=tableRow;horizontal=0;startSize=0;swimlaneHead=0;swimlaneBody=0;top=0;left=0;bottom=0;right=0;collapsible=0;dropTarget=0;fillColor=none;points=[[0,0.5],[1,0.5]];portConstraint=eastwest;rounded=1;sketch=1;fontFamily=Comic Sans MS;fontSize=20;fontColor=#663300;strokeColor=#E07A5F;" vertex="1" parent="wTSnbn3DcDOjPf0Wo8Gv-41">
          <mxGeometry y="175" width="30" height="25" as="geometry" />
        </mxCell>
        <mxCell id="wTSnbn3DcDOjPf0Wo8Gv-57" value="" style="shape=partialRectangle;html=1;whiteSpace=wrap;connectable=0;overflow=hidden;fillColor=none;top=0;left=0;bottom=0;right=0;pointerEvents=1;rounded=1;sketch=1;fontFamily=Comic Sans MS;fontSize=20;fontColor=#663300;strokeColor=#E07A5F;" vertex="1" parent="wTSnbn3DcDOjPf0Wo8Gv-56">
          <mxGeometry width="30" height="25" as="geometry">
            <mxRectangle width="30" height="25" as="alternateBounds" />
          </mxGeometry>
        </mxCell>
        <mxCell id="wTSnbn3DcDOjPf0Wo8Gv-58" value="" style="shape=curlyBracket;whiteSpace=wrap;html=1;rounded=1;flipH=1;sketch=0;fontFamily=Comic Sans MS;fontSize=19;fontColor=#663300;strokeColor=#003300;fillColor=#F2CC8F;rotation=-180;" vertex="1" parent="1">
          <mxGeometry x="120" y="80" width="20" height="200" as="geometry" />
        </mxCell>
        <mxCell id="wTSnbn3DcDOjPf0Wo8Gv-59" value="" style="shape=curlyBracket;whiteSpace=wrap;html=1;rounded=1;flipH=1;sketch=0;fontFamily=Comic Sans MS;fontSize=19;fontColor=#663300;strokeColor=#003300;fillColor=#F2CC8F;rotation=-180;" vertex="1" parent="1">
          <mxGeometry x="120" y="295" width="20" height="170" as="geometry" />
        </mxCell>
        <mxCell id="wTSnbn3DcDOjPf0Wo8Gv-60" value="" style="shape=curlyBracket;whiteSpace=wrap;html=1;rounded=1;flipH=1;sketch=0;fontFamily=Comic Sans MS;fontSize=19;fontColor=#663300;strokeColor=#003300;fillColor=#F2CC8F;rotation=-180;" vertex="1" parent="1">
          <mxGeometry x="120" y="480" width="20" height="185" as="geometry" />
        </mxCell>
        <mxCell id="wTSnbn3DcDOjPf0Wo8Gv-61" value="线程 A" style="text;html=1;strokeColor=none;fillColor=none;align=center;verticalAlign=middle;whiteSpace=wrap;rounded=0;sketch=0;fontFamily=Comic Sans MS;fontSize=19;fontColor=#663300;" vertex="1" parent="1">
          <mxGeometry x="40" y="166" width="70" height="30" as="geometry" />
        </mxCell>
        <mxCell id="wTSnbn3DcDOjPf0Wo8Gv-62" value="线程 C" style="text;html=1;strokeColor=none;fillColor=none;align=center;verticalAlign=middle;whiteSpace=wrap;rounded=0;sketch=0;fontFamily=Comic Sans MS;fontSize=19;fontColor=#663300;" vertex="1" parent="1">
          <mxGeometry x="30" y="557.5" width="70" height="30" as="geometry" />
        </mxCell>
        <mxCell id="wTSnbn3DcDOjPf0Wo8Gv-63" value="线程 B" style="text;html=1;strokeColor=none;fillColor=none;align=center;verticalAlign=middle;whiteSpace=wrap;rounded=0;sketch=0;fontFamily=Comic Sans MS;fontSize=19;fontColor=#663300;" vertex="1" parent="1">
          <mxGeometry x="30" y="365" width="70" height="30" as="geometry" />
        </mxCell>
        <mxCell id="wTSnbn3DcDOjPf0Wo8Gv-64" value="" style="shape=flexArrow;endArrow=classic;html=1;rounded=1;sketch=1;fontFamily=Comic Sans MS;fontSize=19;fontColor=#663300;strokeColor=#E07A5F;fillColor=#F2CC8F;curved=0;" edge="1" parent="1">
          <mxGeometry width="50" height="50" relative="1" as="geometry">
            <mxPoint x="390" y="465" as="sourcePoint" />
            <mxPoint x="560" y="465" as="targetPoint" />
          </mxGeometry>
        </mxCell>
        <mxCell id="wTSnbn3DcDOjPf0Wo8Gv-69" style="edgeStyle=orthogonalEdgeStyle;curved=0;rounded=1;sketch=1;orthogonalLoop=1;jettySize=auto;html=1;fontFamily=Comic Sans MS;fontSize=19;fontColor=#663300;strokeColor=#E07A5F;fillColor=#F2CC8F;" edge="1" parent="1">
          <mxGeometry relative="1" as="geometry">
            <mxPoint x="300" y="132.5" as="targetPoint" />
            <mxPoint x="260" y="132.5" as="sourcePoint" />
          </mxGeometry>
        </mxCell>
        <mxCell id="wTSnbn3DcDOjPf0Wo8Gv-75" style="edgeStyle=orthogonalEdgeStyle;curved=0;rounded=1;sketch=1;orthogonalLoop=1;jettySize=auto;html=1;fontFamily=Comic Sans MS;fontSize=19;fontColor=#663300;strokeColor=#E07A5F;fillColor=#F2CC8F;" edge="1" parent="1" source="wTSnbn3DcDOjPf0Wo8Gv-70">
          <mxGeometry relative="1" as="geometry">
            <mxPoint x="370" y="132.5" as="targetPoint" />
          </mxGeometry>
        </mxCell>
        <mxCell id="wTSnbn3DcDOjPf0Wo8Gv-70" value="" style="shape=tableRow;horizontal=0;startSize=0;swimlaneHead=0;swimlaneBody=0;top=0;left=0;bottom=0;right=0;collapsible=0;dropTarget=0;fillColor=#76608a;points=[[0,0.5],[1,0.5]];portConstraint=eastwest;rounded=1;sketch=0;fontFamily=Comic Sans MS;fontSize=20;fontColor=#ffffff;strokeColor=#432D57;" vertex="1" parent="1">
          <mxGeometry x="300" y="122" width="30" height="21" as="geometry" />
        </mxCell>
        <mxCell id="wTSnbn3DcDOjPf0Wo8Gv-71" value="" style="shape=partialRectangle;html=1;whiteSpace=wrap;connectable=0;overflow=hidden;fillColor=#F2CC8F;top=0;left=0;bottom=0;right=0;pointerEvents=1;rounded=1;sketch=0;fontFamily=Comic Sans MS;fontSize=20;fontColor=#000000;strokeColor=#BD7000;shadow=1;" vertex="1" parent="wTSnbn3DcDOjPf0Wo8Gv-70">
          <mxGeometry width="30" height="21" as="geometry">
            <mxRectangle width="30" height="21" as="alternateBounds" />
          </mxGeometry>
        </mxCell>
        <mxCell id="wTSnbn3DcDOjPf0Wo8Gv-72" value="" style="shape=tableRow;horizontal=0;startSize=0;swimlaneHead=0;swimlaneBody=0;top=0;left=0;bottom=0;right=0;collapsible=0;dropTarget=0;fillColor=#76608a;points=[[0,0.5],[1,0.5]];portConstraint=eastwest;rounded=1;sketch=0;fontFamily=Comic Sans MS;fontSize=20;fontColor=#ffffff;strokeColor=#432D57;" vertex="1" parent="1">
          <mxGeometry x="230" y="122" width="30" height="21" as="geometry" />
        </mxCell>
        <mxCell id="wTSnbn3DcDOjPf0Wo8Gv-73" value="" style="shape=partialRectangle;html=1;whiteSpace=wrap;connectable=0;overflow=hidden;fillColor=#F2CC8F;top=0;left=0;bottom=0;right=0;pointerEvents=1;rounded=1;sketch=0;fontFamily=Comic Sans MS;fontSize=20;fontColor=#000000;strokeColor=#BD7000;shadow=1;" vertex="1" parent="wTSnbn3DcDOjPf0Wo8Gv-72">
          <mxGeometry width="30" height="21" as="geometry">
            <mxRectangle width="30" height="21" as="alternateBounds" />
          </mxGeometry>
        </mxCell>
        <mxCell id="wTSnbn3DcDOjPf0Wo8Gv-81" value="" style="shape=tableRow;horizontal=0;startSize=0;swimlaneHead=0;swimlaneBody=0;top=0;left=0;bottom=0;right=0;collapsible=0;dropTarget=0;fillColor=#76608a;points=[[0,0.5],[1,0.5]];portConstraint=eastwest;rounded=1;sketch=0;fontFamily=Comic Sans MS;fontSize=20;fontColor=#ffffff;strokeColor=#432D57;" vertex="1" parent="1">
          <mxGeometry x="370" y="122" width="30" height="21" as="geometry" />
        </mxCell>
        <mxCell id="wTSnbn3DcDOjPf0Wo8Gv-82" value="" style="shape=partialRectangle;html=1;whiteSpace=wrap;connectable=0;overflow=hidden;fillColor=#F2CC8F;top=0;left=0;bottom=0;right=0;pointerEvents=1;rounded=1;sketch=0;fontFamily=Comic Sans MS;fontSize=20;fontColor=#000000;strokeColor=#BD7000;" vertex="1" parent="wTSnbn3DcDOjPf0Wo8Gv-81">
          <mxGeometry width="30" height="21" as="geometry">
            <mxRectangle width="30" height="21" as="alternateBounds" />
          </mxGeometry>
        </mxCell>
        <mxCell id="wTSnbn3DcDOjPf0Wo8Gv-84" style="edgeStyle=orthogonalEdgeStyle;curved=0;rounded=1;sketch=1;orthogonalLoop=1;jettySize=auto;html=1;entryX=0;entryY=0.5;entryDx=0;entryDy=0;fontFamily=Comic Sans MS;fontSize=19;fontColor=#663300;strokeColor=#E07A5F;fillColor=#F2CC8F;" edge="1" parent="1" source="wTSnbn3DcDOjPf0Wo8Gv-12" target="wTSnbn3DcDOjPf0Wo8Gv-72">
          <mxGeometry relative="1" as="geometry" />
        </mxCell>
        <mxCell id="wTSnbn3DcDOjPf0Wo8Gv-85" value="" style="endArrow=none;html=1;rounded=1;sketch=1;fontFamily=Comic Sans MS;fontSize=19;fontColor=#663300;strokeColor=#000000;fillColor=#F2CC8F;curved=0;" edge="1" parent="1">
          <mxGeometry width="50" height="50" relative="1" as="geometry">
            <mxPoint x="180" y="270" as="sourcePoint" />
            <mxPoint x="230" y="240" as="targetPoint" />
          </mxGeometry>
        </mxCell>
        <mxCell id="wTSnbn3DcDOjPf0Wo8Gv-86" value="" style="endArrow=none;html=1;rounded=1;sketch=1;fontFamily=Comic Sans MS;fontSize=19;fontColor=#663300;strokeColor=#000000;fillColor=#F2CC8F;curved=0;" edge="1" parent="1">
          <mxGeometry width="50" height="50" relative="1" as="geometry">
            <mxPoint x="180" y="280" as="sourcePoint" />
            <mxPoint x="230" y="310" as="targetPoint" />
          </mxGeometry>
        </mxCell>
        <mxCell id="wTSnbn3DcDOjPf0Wo8Gv-87" value="" style="shape=tableRow;horizontal=0;startSize=0;swimlaneHead=0;swimlaneBody=0;top=0;left=0;bottom=0;right=0;collapsible=0;dropTarget=0;fillColor=none;points=[[0,0.5],[1,0.5]];portConstraint=eastwest;rounded=1;sketch=1;fontFamily=Comic Sans MS;fontSize=20;fontColor=#663300;strokeColor=#E07A5F;" vertex="1" parent="1">
          <mxGeometry x="230" y="220" width="30" height="28" as="geometry" />
        </mxCell>
        <mxCell id="wTSnbn3DcDOjPf0Wo8Gv-88" value="" style="shape=partialRectangle;html=1;whiteSpace=wrap;connectable=0;overflow=hidden;fillColor=#FF0000;top=0;left=0;bottom=0;right=0;pointerEvents=1;rounded=1;sketch=0;fontFamily=Comic Sans MS;fontSize=20;fontColor=#663300;strokeColor=#E07A5F;" vertex="1" parent="wTSnbn3DcDOjPf0Wo8Gv-87">
          <mxGeometry width="30" height="28" as="geometry">
            <mxRectangle width="30" height="28" as="alternateBounds" />
          </mxGeometry>
        </mxCell>
        <mxCell id="wTSnbn3DcDOjPf0Wo8Gv-89" value="" style="shape=tableRow;horizontal=0;startSize=0;swimlaneHead=0;swimlaneBody=0;top=0;left=0;bottom=0;right=0;collapsible=0;dropTarget=0;fillColor=none;points=[[0,0.5],[1,0.5]];portConstraint=eastwest;rounded=1;sketch=1;fontFamily=Comic Sans MS;fontSize=20;fontColor=#663300;strokeColor=#E07A5F;" vertex="1" parent="1">
          <mxGeometry x="230" y="295" width="30" height="28" as="geometry" />
        </mxCell>
        <mxCell id="wTSnbn3DcDOjPf0Wo8Gv-90" value="" style="shape=partialRectangle;html=1;whiteSpace=wrap;connectable=0;overflow=hidden;fillColor=#FF0000;top=0;left=0;bottom=0;right=0;pointerEvents=1;rounded=1;sketch=0;fontFamily=Comic Sans MS;fontSize=20;fontColor=#663300;strokeColor=#E07A5F;" vertex="1" parent="wTSnbn3DcDOjPf0Wo8Gv-89">
          <mxGeometry width="30" height="28" as="geometry">
            <mxRectangle width="30" height="28" as="alternateBounds" />
          </mxGeometry>
        </mxCell>
        <mxCell id="wTSnbn3DcDOjPf0Wo8Gv-91" value="" style="endArrow=none;html=1;rounded=1;sketch=1;fontFamily=Comic Sans MS;fontSize=19;fontColor=#663300;strokeColor=#000000;fillColor=#F2CC8F;curved=0;" edge="1" parent="1">
          <mxGeometry width="50" height="50" relative="1" as="geometry">
            <mxPoint x="260" y="225" as="sourcePoint" />
            <mxPoint x="310" y="210" as="targetPoint" />
          </mxGeometry>
        </mxCell>
        <mxCell id="wTSnbn3DcDOjPf0Wo8Gv-92" value="" style="shape=partialRectangle;html=1;whiteSpace=wrap;connectable=0;overflow=hidden;fillColor=#000000;top=0;left=0;bottom=0;right=0;pointerEvents=1;rounded=1;sketch=0;fontFamily=Comic Sans MS;fontSize=20;fontColor=#663300;strokeColor=#E07A5F;" vertex="1" parent="1">
          <mxGeometry x="310" y="190" width="30" height="28" as="geometry">
            <mxRectangle width="30" height="28" as="alternateBounds" />
          </mxGeometry>
        </mxCell>
        <mxCell id="wTSnbn3DcDOjPf0Wo8Gv-93" value="" style="endArrow=none;html=1;rounded=1;sketch=1;fontFamily=Comic Sans MS;fontSize=19;fontColor=#663300;strokeColor=#000000;fillColor=#F2CC8F;curved=0;" edge="1" parent="1">
          <mxGeometry width="50" height="50" relative="1" as="geometry">
            <mxPoint x="260" y="233" as="sourcePoint" />
            <mxPoint x="310" y="250" as="targetPoint" />
          </mxGeometry>
        </mxCell>
        <mxCell id="wTSnbn3DcDOjPf0Wo8Gv-94" value="" style="shape=partialRectangle;html=1;whiteSpace=wrap;connectable=0;overflow=hidden;fillColor=#000000;top=0;left=0;bottom=0;right=0;pointerEvents=1;rounded=1;sketch=0;fontFamily=Comic Sans MS;fontSize=20;fontColor=#663300;strokeColor=#E07A5F;" vertex="1" parent="1">
          <mxGeometry x="310" y="240" width="30" height="28" as="geometry">
            <mxRectangle width="30" height="28" as="alternateBounds" />
          </mxGeometry>
        </mxCell>
        <mxCell id="wTSnbn3DcDOjPf0Wo8Gv-95" value="" style="endArrow=none;html=1;rounded=1;sketch=1;fontFamily=Comic Sans MS;fontSize=19;fontColor=#663300;strokeColor=#000000;fillColor=#F2CC8F;curved=0;" edge="1" parent="1">
          <mxGeometry width="50" height="50" relative="1" as="geometry">
            <mxPoint x="340" y="203" as="sourcePoint" />
            <mxPoint x="370" y="180" as="targetPoint" />
          </mxGeometry>
        </mxCell>
        <mxCell id="wTSnbn3DcDOjPf0Wo8Gv-96" value="" style="shape=partialRectangle;html=1;whiteSpace=wrap;connectable=0;overflow=hidden;fillColor=#FF0000;top=0;left=0;bottom=0;right=0;pointerEvents=1;rounded=1;sketch=0;fontFamily=Comic Sans MS;fontSize=20;fontColor=#663300;strokeColor=#E07A5F;" vertex="1" parent="1">
          <mxGeometry x="370" y="162" width="30" height="28" as="geometry">
            <mxRectangle width="30" height="28" as="alternateBounds" />
          </mxGeometry>
        </mxCell>
        <mxCell id="wTSnbn3DcDOjPf0Wo8Gv-97" value="" style="shape=partialRectangle;html=1;whiteSpace=wrap;connectable=0;overflow=hidden;fillColor=#FF0000;top=0;left=0;bottom=0;right=0;pointerEvents=1;rounded=1;sketch=0;fontFamily=Comic Sans MS;fontSize=20;fontColor=#663300;strokeColor=#E07A5F;" vertex="1" parent="1">
          <mxGeometry x="370" y="212" width="30" height="28" as="geometry">
            <mxRectangle width="30" height="28" as="alternateBounds" />
          </mxGeometry>
        </mxCell>
        <mxCell id="wTSnbn3DcDOjPf0Wo8Gv-98" value="" style="endArrow=none;html=1;rounded=1;sketch=1;fontFamily=Comic Sans MS;fontSize=19;fontColor=#663300;strokeColor=#000000;fillColor=#F2CC8F;curved=0;" edge="1" parent="1">
          <mxGeometry width="50" height="50" relative="1" as="geometry">
            <mxPoint x="340" y="210" as="sourcePoint" />
            <mxPoint x="370" y="229" as="targetPoint" />
          </mxGeometry>
        </mxCell>
        <mxCell id="wTSnbn3DcDOjPf0Wo8Gv-99" value="" style="endArrow=none;html=1;rounded=1;sketch=1;fontFamily=Comic Sans MS;fontSize=19;fontColor=#663300;strokeColor=#000000;fillColor=#F2CC8F;curved=0;" edge="1" parent="1">
          <mxGeometry width="50" height="50" relative="1" as="geometry">
            <mxPoint x="260" y="311" as="sourcePoint" />
            <mxPoint x="310" y="296" as="targetPoint" />
          </mxGeometry>
        </mxCell>
        <mxCell id="wTSnbn3DcDOjPf0Wo8Gv-100" value="" style="shape=partialRectangle;html=1;whiteSpace=wrap;connectable=0;overflow=hidden;fillColor=#000000;top=0;left=0;bottom=0;right=0;pointerEvents=1;rounded=1;sketch=0;fontFamily=Comic Sans MS;fontSize=20;fontColor=#663300;strokeColor=#E07A5F;" vertex="1" parent="1">
          <mxGeometry x="310" y="276" width="30" height="28" as="geometry">
            <mxRectangle width="30" height="28" as="alternateBounds" />
          </mxGeometry>
        </mxCell>
        <mxCell id="wTSnbn3DcDOjPf0Wo8Gv-101" value="" style="endArrow=none;html=1;rounded=1;sketch=1;fontFamily=Comic Sans MS;fontSize=19;fontColor=#663300;strokeColor=#000000;fillColor=#F2CC8F;curved=0;" edge="1" parent="1">
          <mxGeometry width="50" height="50" relative="1" as="geometry">
            <mxPoint x="260" y="319" as="sourcePoint" />
            <mxPoint x="310" y="336" as="targetPoint" />
          </mxGeometry>
        </mxCell>
        <mxCell id="wTSnbn3DcDOjPf0Wo8Gv-102" value="" style="shape=partialRectangle;html=1;whiteSpace=wrap;connectable=0;overflow=hidden;fillColor=#000000;top=0;left=0;bottom=0;right=0;pointerEvents=1;rounded=1;sketch=0;fontFamily=Comic Sans MS;fontSize=20;fontColor=#663300;strokeColor=#E07A5F;" vertex="1" parent="1">
          <mxGeometry x="310" y="326" width="30" height="28" as="geometry">
            <mxRectangle width="30" height="28" as="alternateBounds" />
          </mxGeometry>
        </mxCell>
        <mxCell id="wTSnbn3DcDOjPf0Wo8Gv-105" value="" style="shape=partialRectangle;html=1;whiteSpace=wrap;connectable=0;overflow=hidden;fillColor=#FF0000;top=0;left=0;bottom=0;right=0;pointerEvents=1;rounded=1;sketch=0;fontFamily=Comic Sans MS;fontSize=20;fontColor=#663300;strokeColor=#E07A5F;" vertex="1" parent="1">
          <mxGeometry x="370" y="298" width="30" height="28" as="geometry">
            <mxRectangle width="30" height="28" as="alternateBounds" />
          </mxGeometry>
        </mxCell>
        <mxCell id="wTSnbn3DcDOjPf0Wo8Gv-106" value="" style="endArrow=none;html=1;rounded=1;sketch=1;fontFamily=Comic Sans MS;fontSize=19;fontColor=#663300;strokeColor=#000000;fillColor=#F2CC8F;curved=0;" edge="1" parent="1">
          <mxGeometry width="50" height="50" relative="1" as="geometry">
            <mxPoint x="340" y="296" as="sourcePoint" />
            <mxPoint x="370" y="315" as="targetPoint" />
          </mxGeometry>
        </mxCell>
        <mxCell id="wTSnbn3DcDOjPf0Wo8Gv-108" value="" style="shape=table;startSize=0;container=1;collapsible=0;childLayout=tableLayout;rounded=1;sketch=0;fontFamily=Comic Sans MS;fontSize=10;shadow=1;" vertex="1" parent="1">
          <mxGeometry x="710" y="64" width="30" height="230" as="geometry" />
        </mxCell>
        <mxCell id="wTSnbn3DcDOjPf0Wo8Gv-109" value="" style="shape=tableRow;horizontal=0;startSize=0;swimlaneHead=0;swimlaneBody=0;top=0;left=0;bottom=0;right=0;collapsible=0;dropTarget=0;fillColor=none;points=[[0,0.5],[1,0.5]];portConstraint=eastwest;rounded=1;sketch=1;fontFamily=Comic Sans MS;fontSize=20;fontColor=#663300;strokeColor=#F2CC8F;" vertex="1" parent="wTSnbn3DcDOjPf0Wo8Gv-108">
          <mxGeometry width="30" height="28" as="geometry" />
        </mxCell>
        <mxCell id="wTSnbn3DcDOjPf0Wo8Gv-110" value="" style="shape=partialRectangle;html=1;whiteSpace=wrap;connectable=0;overflow=hidden;fillColor=#008a00;top=0;left=0;bottom=0;right=0;pointerEvents=1;rounded=1;sketch=0;fontFamily=Comic Sans MS;fontSize=20;fontColor=#ffffff;strokeColor=#005700;" vertex="1" parent="wTSnbn3DcDOjPf0Wo8Gv-109">
          <mxGeometry width="30" height="28" as="geometry">
            <mxRectangle width="30" height="28" as="alternateBounds" />
          </mxGeometry>
        </mxCell>
        <mxCell id="wTSnbn3DcDOjPf0Wo8Gv-111" value="" style="shape=tableRow;horizontal=0;startSize=0;swimlaneHead=0;swimlaneBody=0;top=0;left=0;bottom=0;right=0;collapsible=0;dropTarget=0;fillColor=none;points=[[0,0.5],[1,0.5]];portConstraint=eastwest;rounded=1;sketch=1;fontFamily=Comic Sans MS;fontSize=20;fontColor=#663300;strokeColor=#E07A5F;" vertex="1" parent="wTSnbn3DcDOjPf0Wo8Gv-108">
          <mxGeometry y="28" width="30" height="30" as="geometry" />
        </mxCell>
        <mxCell id="wTSnbn3DcDOjPf0Wo8Gv-112" value="" style="shape=partialRectangle;html=1;whiteSpace=wrap;connectable=0;overflow=hidden;fillColor=none;top=0;left=0;bottom=0;right=0;pointerEvents=1;rounded=1;sketch=1;fontFamily=Comic Sans MS;fontSize=20;fontColor=#663300;strokeColor=#E07A5F;" vertex="1" parent="wTSnbn3DcDOjPf0Wo8Gv-111">
          <mxGeometry width="30" height="30" as="geometry">
            <mxRectangle width="30" height="30" as="alternateBounds" />
          </mxGeometry>
        </mxCell>
        <mxCell id="wTSnbn3DcDOjPf0Wo8Gv-113" value="" style="shape=tableRow;horizontal=0;startSize=0;swimlaneHead=0;swimlaneBody=0;top=0;left=0;bottom=0;right=0;collapsible=0;dropTarget=0;fillColor=#76608a;points=[[0,0.5],[1,0.5]];portConstraint=eastwest;rounded=1;sketch=0;fontFamily=Comic Sans MS;fontSize=20;fontColor=#ffffff;strokeColor=#432D57;" vertex="1" parent="wTSnbn3DcDOjPf0Wo8Gv-108">
          <mxGeometry y="58" width="30" height="29" as="geometry" />
        </mxCell>
        <mxCell id="wTSnbn3DcDOjPf0Wo8Gv-114" value="" style="shape=partialRectangle;html=1;whiteSpace=wrap;connectable=0;overflow=hidden;fillColor=#F2CC8F;top=0;left=0;bottom=0;right=0;pointerEvents=1;rounded=1;sketch=0;fontFamily=Comic Sans MS;fontSize=20;fontColor=#000000;strokeColor=#BD7000;" vertex="1" parent="wTSnbn3DcDOjPf0Wo8Gv-113">
          <mxGeometry width="30" height="29" as="geometry">
            <mxRectangle width="30" height="29" as="alternateBounds" />
          </mxGeometry>
        </mxCell>
        <mxCell id="wTSnbn3DcDOjPf0Wo8Gv-115" value="" style="shape=tableRow;horizontal=0;startSize=0;swimlaneHead=0;swimlaneBody=0;top=0;left=0;bottom=0;right=0;collapsible=0;dropTarget=0;fillColor=none;points=[[0,0.5],[1,0.5]];portConstraint=eastwest;rounded=1;sketch=1;fontFamily=Comic Sans MS;fontSize=20;fontColor=#663300;strokeColor=#E07A5F;" vertex="1" parent="wTSnbn3DcDOjPf0Wo8Gv-108">
          <mxGeometry y="87" width="30" height="28" as="geometry" />
        </mxCell>
        <mxCell id="wTSnbn3DcDOjPf0Wo8Gv-116" value="" style="shape=partialRectangle;html=1;whiteSpace=wrap;connectable=0;overflow=hidden;fillColor=none;top=0;left=0;bottom=0;right=0;pointerEvents=1;rounded=1;sketch=1;fontFamily=Comic Sans MS;fontSize=20;fontColor=#663300;strokeColor=#E07A5F;" vertex="1" parent="wTSnbn3DcDOjPf0Wo8Gv-115">
          <mxGeometry width="30" height="28" as="geometry">
            <mxRectangle width="30" height="28" as="alternateBounds" />
          </mxGeometry>
        </mxCell>
        <mxCell id="wTSnbn3DcDOjPf0Wo8Gv-117" value="" style="shape=tableRow;horizontal=0;startSize=0;swimlaneHead=0;swimlaneBody=0;top=0;left=0;bottom=0;right=0;collapsible=0;dropTarget=0;fillColor=none;points=[[0,0.5],[1,0.5]];portConstraint=eastwest;rounded=1;sketch=1;fontFamily=Comic Sans MS;fontSize=20;fontColor=#663300;strokeColor=#E07A5F;" vertex="1" parent="wTSnbn3DcDOjPf0Wo8Gv-108">
          <mxGeometry y="115" width="30" height="28" as="geometry" />
        </mxCell>
        <mxCell id="wTSnbn3DcDOjPf0Wo8Gv-118" value="" style="shape=partialRectangle;html=1;whiteSpace=wrap;connectable=0;overflow=hidden;fillColor=none;top=0;left=0;bottom=0;right=0;pointerEvents=1;rounded=1;sketch=1;fontFamily=Comic Sans MS;fontSize=20;fontColor=#663300;strokeColor=#E07A5F;" vertex="1" parent="wTSnbn3DcDOjPf0Wo8Gv-117">
          <mxGeometry width="30" height="28" as="geometry">
            <mxRectangle width="30" height="28" as="alternateBounds" />
          </mxGeometry>
        </mxCell>
        <mxCell id="wTSnbn3DcDOjPf0Wo8Gv-119" value="" style="shape=tableRow;horizontal=0;startSize=0;swimlaneHead=0;swimlaneBody=0;top=0;left=0;bottom=0;right=0;collapsible=0;dropTarget=0;fillColor=none;points=[[0,0.5],[1,0.5]];portConstraint=eastwest;rounded=1;sketch=1;fontFamily=Comic Sans MS;fontSize=20;fontColor=#663300;strokeColor=#E07A5F;" vertex="1" parent="wTSnbn3DcDOjPf0Wo8Gv-108">
          <mxGeometry y="143" width="30" height="30" as="geometry" />
        </mxCell>
        <mxCell id="wTSnbn3DcDOjPf0Wo8Gv-120" value="" style="shape=partialRectangle;html=1;whiteSpace=wrap;connectable=0;overflow=hidden;fillColor=#F2CC8F;top=0;left=0;bottom=0;right=0;pointerEvents=1;rounded=1;sketch=0;fontFamily=Comic Sans MS;fontSize=20;fontColor=#663300;strokeColor=#000000;" vertex="1" parent="wTSnbn3DcDOjPf0Wo8Gv-119">
          <mxGeometry width="30" height="30" as="geometry">
            <mxRectangle width="30" height="30" as="alternateBounds" />
          </mxGeometry>
        </mxCell>
        <mxCell id="wTSnbn3DcDOjPf0Wo8Gv-121" value="" style="shape=tableRow;horizontal=0;startSize=0;swimlaneHead=0;swimlaneBody=0;top=0;left=0;bottom=0;right=0;collapsible=0;dropTarget=0;fillColor=none;points=[[0,0.5],[1,0.5]];portConstraint=eastwest;rounded=1;sketch=1;fontFamily=Comic Sans MS;fontSize=20;fontColor=#663300;strokeColor=#E07A5F;" vertex="1" parent="wTSnbn3DcDOjPf0Wo8Gv-108">
          <mxGeometry y="173" width="30" height="29" as="geometry" />
        </mxCell>
        <mxCell id="wTSnbn3DcDOjPf0Wo8Gv-122" value="" style="shape=partialRectangle;html=1;whiteSpace=wrap;connectable=0;overflow=hidden;fillColor=none;top=0;left=0;bottom=0;right=0;pointerEvents=1;rounded=1;sketch=1;fontFamily=Comic Sans MS;fontSize=20;fontColor=#663300;strokeColor=#E07A5F;" vertex="1" parent="wTSnbn3DcDOjPf0Wo8Gv-121">
          <mxGeometry width="30" height="29" as="geometry">
            <mxRectangle width="30" height="29" as="alternateBounds" />
          </mxGeometry>
        </mxCell>
        <mxCell id="wTSnbn3DcDOjPf0Wo8Gv-123" value="" style="shape=tableRow;horizontal=0;startSize=0;swimlaneHead=0;swimlaneBody=0;top=0;left=0;bottom=0;right=0;collapsible=0;dropTarget=0;fillColor=none;points=[[0,0.5],[1,0.5]];portConstraint=eastwest;rounded=1;sketch=1;fontFamily=Comic Sans MS;fontSize=20;fontColor=#663300;strokeColor=#E07A5F;" vertex="1" parent="wTSnbn3DcDOjPf0Wo8Gv-108">
          <mxGeometry y="202" width="30" height="28" as="geometry" />
        </mxCell>
        <mxCell id="wTSnbn3DcDOjPf0Wo8Gv-124" value="" style="shape=partialRectangle;html=1;whiteSpace=wrap;connectable=0;overflow=hidden;fillColor=#008a00;top=0;left=0;bottom=0;right=0;pointerEvents=1;rounded=1;sketch=0;fontFamily=Comic Sans MS;fontSize=20;fontColor=#ffffff;strokeColor=#005700;" vertex="1" parent="wTSnbn3DcDOjPf0Wo8Gv-123">
          <mxGeometry width="30" height="28" as="geometry">
            <mxRectangle width="30" height="28" as="alternateBounds" />
          </mxGeometry>
        </mxCell>
        <mxCell id="wTSnbn3DcDOjPf0Wo8Gv-125" value="" style="shape=table;startSize=0;container=1;collapsible=0;childLayout=tableLayout;rounded=1;sketch=1;fontFamily=Comic Sans MS;fontSize=20;" vertex="1" parent="1">
          <mxGeometry x="710" y="294" width="30" height="180" as="geometry" />
        </mxCell>
        <mxCell id="wTSnbn3DcDOjPf0Wo8Gv-126" value="" style="shape=tableRow;horizontal=0;startSize=0;swimlaneHead=0;swimlaneBody=0;top=0;left=0;bottom=0;right=0;collapsible=0;dropTarget=0;fillColor=none;points=[[0,0.5],[1,0.5]];portConstraint=eastwest;rounded=1;sketch=1;fontFamily=Comic Sans MS;fontSize=20;fontColor=#663300;strokeColor=#E07A5F;" vertex="1" parent="wTSnbn3DcDOjPf0Wo8Gv-125">
          <mxGeometry width="30" height="22" as="geometry" />
        </mxCell>
        <mxCell id="wTSnbn3DcDOjPf0Wo8Gv-127" value="" style="shape=partialRectangle;html=1;whiteSpace=wrap;connectable=0;overflow=hidden;fillColor=none;top=0;left=0;bottom=0;right=0;pointerEvents=1;rounded=1;sketch=1;fontFamily=Comic Sans MS;fontSize=20;fontColor=#663300;strokeColor=#E07A5F;" vertex="1" parent="wTSnbn3DcDOjPf0Wo8Gv-126">
          <mxGeometry width="30" height="22" as="geometry">
            <mxRectangle width="30" height="22" as="alternateBounds" />
          </mxGeometry>
        </mxCell>
        <mxCell id="wTSnbn3DcDOjPf0Wo8Gv-128" value="" style="shape=tableRow;horizontal=0;startSize=0;swimlaneHead=0;swimlaneBody=0;top=0;left=0;bottom=0;right=0;collapsible=0;dropTarget=0;fillColor=none;points=[[0,0.5],[1,0.5]];portConstraint=eastwest;rounded=1;sketch=1;fontFamily=Comic Sans MS;fontSize=20;fontColor=#663300;strokeColor=#E07A5F;" vertex="1" parent="wTSnbn3DcDOjPf0Wo8Gv-125">
          <mxGeometry y="22" width="30" height="23" as="geometry" />
        </mxCell>
        <mxCell id="wTSnbn3DcDOjPf0Wo8Gv-129" value="" style="shape=partialRectangle;html=1;whiteSpace=wrap;connectable=0;overflow=hidden;fillColor=none;top=0;left=0;bottom=0;right=0;pointerEvents=1;rounded=1;sketch=1;fontFamily=Comic Sans MS;fontSize=20;fontColor=#663300;strokeColor=#E07A5F;" vertex="1" parent="wTSnbn3DcDOjPf0Wo8Gv-128">
          <mxGeometry width="30" height="23" as="geometry">
            <mxRectangle width="30" height="23" as="alternateBounds" />
          </mxGeometry>
        </mxCell>
        <mxCell id="wTSnbn3DcDOjPf0Wo8Gv-130" value="" style="shape=tableRow;horizontal=0;startSize=0;swimlaneHead=0;swimlaneBody=0;top=0;left=0;bottom=0;right=0;collapsible=0;dropTarget=0;fillColor=none;points=[[0,0.5],[1,0.5]];portConstraint=eastwest;rounded=1;sketch=1;fontFamily=Comic Sans MS;fontSize=20;fontColor=#663300;strokeColor=#E07A5F;" vertex="1" parent="wTSnbn3DcDOjPf0Wo8Gv-125">
          <mxGeometry y="45" width="30" height="23" as="geometry" />
        </mxCell>
        <mxCell id="wTSnbn3DcDOjPf0Wo8Gv-131" value="" style="shape=partialRectangle;html=1;whiteSpace=wrap;connectable=0;overflow=hidden;fillColor=none;top=0;left=0;bottom=0;right=0;pointerEvents=1;rounded=1;sketch=1;fontFamily=Comic Sans MS;fontSize=20;fontColor=#663300;strokeColor=#E07A5F;" vertex="1" parent="wTSnbn3DcDOjPf0Wo8Gv-130">
          <mxGeometry width="30" height="23" as="geometry">
            <mxRectangle width="30" height="23" as="alternateBounds" />
          </mxGeometry>
        </mxCell>
        <mxCell id="wTSnbn3DcDOjPf0Wo8Gv-132" value="" style="shape=tableRow;horizontal=0;startSize=0;swimlaneHead=0;swimlaneBody=0;top=0;left=0;bottom=0;right=0;collapsible=0;dropTarget=0;fillColor=none;points=[[0,0.5],[1,0.5]];portConstraint=eastwest;rounded=1;sketch=1;fontFamily=Comic Sans MS;fontSize=20;fontColor=#663300;strokeColor=#E07A5F;" vertex="1" parent="wTSnbn3DcDOjPf0Wo8Gv-125">
          <mxGeometry y="68" width="30" height="22" as="geometry" />
        </mxCell>
        <mxCell id="wTSnbn3DcDOjPf0Wo8Gv-133" value="" style="shape=partialRectangle;html=1;whiteSpace=wrap;connectable=0;overflow=hidden;fillColor=none;top=0;left=0;bottom=0;right=0;pointerEvents=1;rounded=1;sketch=1;fontFamily=Comic Sans MS;fontSize=20;fontColor=#663300;strokeColor=#E07A5F;" vertex="1" parent="wTSnbn3DcDOjPf0Wo8Gv-132">
          <mxGeometry width="30" height="22" as="geometry">
            <mxRectangle width="30" height="22" as="alternateBounds" />
          </mxGeometry>
        </mxCell>
        <mxCell id="wTSnbn3DcDOjPf0Wo8Gv-134" value="" style="shape=tableRow;horizontal=0;startSize=0;swimlaneHead=0;swimlaneBody=0;top=0;left=0;bottom=0;right=0;collapsible=0;dropTarget=0;fillColor=none;points=[[0,0.5],[1,0.5]];portConstraint=eastwest;rounded=1;sketch=1;fontFamily=Comic Sans MS;fontSize=20;fontColor=#663300;strokeColor=#E07A5F;" vertex="1" parent="wTSnbn3DcDOjPf0Wo8Gv-125">
          <mxGeometry y="90" width="30" height="22" as="geometry" />
        </mxCell>
        <mxCell id="wTSnbn3DcDOjPf0Wo8Gv-135" value="" style="shape=partialRectangle;html=1;whiteSpace=wrap;connectable=0;overflow=hidden;fillColor=none;top=0;left=0;bottom=0;right=0;pointerEvents=1;rounded=1;sketch=1;fontFamily=Comic Sans MS;fontSize=20;fontColor=#663300;strokeColor=#E07A5F;" vertex="1" parent="wTSnbn3DcDOjPf0Wo8Gv-134">
          <mxGeometry width="30" height="22" as="geometry">
            <mxRectangle width="30" height="22" as="alternateBounds" />
          </mxGeometry>
        </mxCell>
        <mxCell id="wTSnbn3DcDOjPf0Wo8Gv-136" value="" style="shape=tableRow;horizontal=0;startSize=0;swimlaneHead=0;swimlaneBody=0;top=0;left=0;bottom=0;right=0;collapsible=0;dropTarget=0;fillColor=none;points=[[0,0.5],[1,0.5]];portConstraint=eastwest;rounded=1;sketch=1;fontFamily=Comic Sans MS;fontSize=20;fontColor=#663300;strokeColor=#E07A5F;" vertex="1" parent="wTSnbn3DcDOjPf0Wo8Gv-125">
          <mxGeometry y="112" width="30" height="23" as="geometry" />
        </mxCell>
        <mxCell id="wTSnbn3DcDOjPf0Wo8Gv-137" value="" style="shape=partialRectangle;html=1;whiteSpace=wrap;connectable=0;overflow=hidden;fillColor=none;top=0;left=0;bottom=0;right=0;pointerEvents=1;rounded=1;sketch=1;fontFamily=Comic Sans MS;fontSize=20;fontColor=#663300;strokeColor=#E07A5F;" vertex="1" parent="wTSnbn3DcDOjPf0Wo8Gv-136">
          <mxGeometry width="30" height="23" as="geometry">
            <mxRectangle width="30" height="23" as="alternateBounds" />
          </mxGeometry>
        </mxCell>
        <mxCell id="wTSnbn3DcDOjPf0Wo8Gv-138" value="" style="shape=tableRow;horizontal=0;startSize=0;swimlaneHead=0;swimlaneBody=0;top=0;left=0;bottom=0;right=0;collapsible=0;dropTarget=0;fillColor=none;points=[[0,0.5],[1,0.5]];portConstraint=eastwest;rounded=1;sketch=1;fontFamily=Comic Sans MS;fontSize=20;fontColor=#663300;strokeColor=#E07A5F;" vertex="1" parent="wTSnbn3DcDOjPf0Wo8Gv-125">
          <mxGeometry y="135" width="30" height="23" as="geometry" />
        </mxCell>
        <mxCell id="wTSnbn3DcDOjPf0Wo8Gv-139" value="" style="shape=partialRectangle;html=1;whiteSpace=wrap;connectable=0;overflow=hidden;fillColor=none;top=0;left=0;bottom=0;right=0;pointerEvents=1;rounded=1;sketch=1;fontFamily=Comic Sans MS;fontSize=20;fontColor=#663300;strokeColor=#E07A5F;" vertex="1" parent="wTSnbn3DcDOjPf0Wo8Gv-138">
          <mxGeometry width="30" height="23" as="geometry">
            <mxRectangle width="30" height="23" as="alternateBounds" />
          </mxGeometry>
        </mxCell>
        <mxCell id="wTSnbn3DcDOjPf0Wo8Gv-140" value="" style="shape=tableRow;horizontal=0;startSize=0;swimlaneHead=0;swimlaneBody=0;top=0;left=0;bottom=0;right=0;collapsible=0;dropTarget=0;fillColor=none;points=[[0,0.5],[1,0.5]];portConstraint=eastwest;rounded=1;sketch=1;fontFamily=Comic Sans MS;fontSize=20;fontColor=#663300;strokeColor=#E07A5F;" vertex="1" parent="wTSnbn3DcDOjPf0Wo8Gv-125">
          <mxGeometry y="158" width="30" height="22" as="geometry" />
        </mxCell>
        <mxCell id="wTSnbn3DcDOjPf0Wo8Gv-141" value="" style="shape=partialRectangle;html=1;whiteSpace=wrap;connectable=0;overflow=hidden;fillColor=none;top=0;left=0;bottom=0;right=0;pointerEvents=1;rounded=1;sketch=1;fontFamily=Comic Sans MS;fontSize=20;fontColor=#663300;strokeColor=#E07A5F;" vertex="1" parent="wTSnbn3DcDOjPf0Wo8Gv-140">
          <mxGeometry width="30" height="22" as="geometry">
            <mxRectangle width="30" height="22" as="alternateBounds" />
          </mxGeometry>
        </mxCell>
        <mxCell id="wTSnbn3DcDOjPf0Wo8Gv-142" value="" style="shape=table;startSize=0;container=1;collapsible=0;childLayout=tableLayout;rounded=1;sketch=1;fontFamily=Comic Sans MS;fontSize=20;" vertex="1" parent="1">
          <mxGeometry x="710" y="474" width="30" height="200" as="geometry" />
        </mxCell>
        <mxCell id="wTSnbn3DcDOjPf0Wo8Gv-143" value="" style="shape=tableRow;horizontal=0;startSize=0;swimlaneHead=0;swimlaneBody=0;top=0;left=0;bottom=0;right=0;collapsible=0;dropTarget=0;fillColor=none;points=[[0,0.5],[1,0.5]];portConstraint=eastwest;rounded=1;sketch=1;fontFamily=Comic Sans MS;fontSize=20;fontColor=#663300;strokeColor=#E07A5F;" vertex="1" parent="wTSnbn3DcDOjPf0Wo8Gv-142">
          <mxGeometry width="30" height="25" as="geometry" />
        </mxCell>
        <mxCell id="wTSnbn3DcDOjPf0Wo8Gv-144" value="" style="shape=partialRectangle;html=1;whiteSpace=wrap;connectable=0;overflow=hidden;fillColor=none;top=0;left=0;bottom=0;right=0;pointerEvents=1;rounded=1;sketch=1;fontFamily=Comic Sans MS;fontSize=20;fontColor=#663300;strokeColor=#E07A5F;" vertex="1" parent="wTSnbn3DcDOjPf0Wo8Gv-143">
          <mxGeometry width="30" height="25" as="geometry">
            <mxRectangle width="30" height="25" as="alternateBounds" />
          </mxGeometry>
        </mxCell>
        <mxCell id="wTSnbn3DcDOjPf0Wo8Gv-145" value="" style="shape=tableRow;horizontal=0;startSize=0;swimlaneHead=0;swimlaneBody=0;top=0;left=0;bottom=0;right=0;collapsible=0;dropTarget=0;fillColor=none;points=[[0,0.5],[1,0.5]];portConstraint=eastwest;rounded=1;sketch=1;fontFamily=Comic Sans MS;fontSize=20;fontColor=#663300;strokeColor=#E07A5F;" vertex="1" parent="wTSnbn3DcDOjPf0Wo8Gv-142">
          <mxGeometry y="25" width="30" height="25" as="geometry" />
        </mxCell>
        <mxCell id="wTSnbn3DcDOjPf0Wo8Gv-146" value="" style="shape=partialRectangle;html=1;whiteSpace=wrap;connectable=0;overflow=hidden;fillColor=none;top=0;left=0;bottom=0;right=0;pointerEvents=1;rounded=1;sketch=1;fontFamily=Comic Sans MS;fontSize=20;fontColor=#663300;strokeColor=#E07A5F;" vertex="1" parent="wTSnbn3DcDOjPf0Wo8Gv-145">
          <mxGeometry width="30" height="25" as="geometry">
            <mxRectangle width="30" height="25" as="alternateBounds" />
          </mxGeometry>
        </mxCell>
        <mxCell id="wTSnbn3DcDOjPf0Wo8Gv-147" value="" style="shape=tableRow;horizontal=0;startSize=0;swimlaneHead=0;swimlaneBody=0;top=0;left=0;bottom=0;right=0;collapsible=0;dropTarget=0;fillColor=none;points=[[0,0.5],[1,0.5]];portConstraint=eastwest;rounded=1;sketch=1;fontFamily=Comic Sans MS;fontSize=20;fontColor=#663300;strokeColor=#E07A5F;" vertex="1" parent="wTSnbn3DcDOjPf0Wo8Gv-142">
          <mxGeometry y="50" width="30" height="25" as="geometry" />
        </mxCell>
        <mxCell id="wTSnbn3DcDOjPf0Wo8Gv-148" value="" style="shape=partialRectangle;html=1;whiteSpace=wrap;connectable=0;overflow=hidden;fillColor=none;top=0;left=0;bottom=0;right=0;pointerEvents=1;rounded=1;sketch=1;fontFamily=Comic Sans MS;fontSize=20;fontColor=#663300;strokeColor=#E07A5F;" vertex="1" parent="wTSnbn3DcDOjPf0Wo8Gv-147">
          <mxGeometry width="30" height="25" as="geometry">
            <mxRectangle width="30" height="25" as="alternateBounds" />
          </mxGeometry>
        </mxCell>
        <mxCell id="wTSnbn3DcDOjPf0Wo8Gv-149" value="" style="shape=tableRow;horizontal=0;startSize=0;swimlaneHead=0;swimlaneBody=0;top=0;left=0;bottom=0;right=0;collapsible=0;dropTarget=0;fillColor=none;points=[[0,0.5],[1,0.5]];portConstraint=eastwest;rounded=1;sketch=1;fontFamily=Comic Sans MS;fontSize=20;fontColor=#663300;strokeColor=#E07A5F;" vertex="1" parent="wTSnbn3DcDOjPf0Wo8Gv-142">
          <mxGeometry y="75" width="30" height="25" as="geometry" />
        </mxCell>
        <mxCell id="wTSnbn3DcDOjPf0Wo8Gv-150" value="" style="shape=partialRectangle;html=1;whiteSpace=wrap;connectable=0;overflow=hidden;fillColor=none;top=0;left=0;bottom=0;right=0;pointerEvents=1;rounded=1;sketch=1;fontFamily=Comic Sans MS;fontSize=20;fontColor=#663300;strokeColor=#E07A5F;" vertex="1" parent="wTSnbn3DcDOjPf0Wo8Gv-149">
          <mxGeometry width="30" height="25" as="geometry">
            <mxRectangle width="30" height="25" as="alternateBounds" />
          </mxGeometry>
        </mxCell>
        <mxCell id="wTSnbn3DcDOjPf0Wo8Gv-151" value="" style="shape=tableRow;horizontal=0;startSize=0;swimlaneHead=0;swimlaneBody=0;top=0;left=0;bottom=0;right=0;collapsible=0;dropTarget=0;fillColor=none;points=[[0,0.5],[1,0.5]];portConstraint=eastwest;rounded=1;sketch=1;fontFamily=Comic Sans MS;fontSize=20;fontColor=#663300;strokeColor=#E07A5F;" vertex="1" parent="wTSnbn3DcDOjPf0Wo8Gv-142">
          <mxGeometry y="100" width="30" height="25" as="geometry" />
        </mxCell>
        <mxCell id="wTSnbn3DcDOjPf0Wo8Gv-152" value="" style="shape=partialRectangle;html=1;whiteSpace=wrap;connectable=0;overflow=hidden;fillColor=none;top=0;left=0;bottom=0;right=0;pointerEvents=1;rounded=1;sketch=1;fontFamily=Comic Sans MS;fontSize=20;fontColor=#663300;strokeColor=#E07A5F;" vertex="1" parent="wTSnbn3DcDOjPf0Wo8Gv-151">
          <mxGeometry width="30" height="25" as="geometry">
            <mxRectangle width="30" height="25" as="alternateBounds" />
          </mxGeometry>
        </mxCell>
        <mxCell id="wTSnbn3DcDOjPf0Wo8Gv-153" value="" style="shape=tableRow;horizontal=0;startSize=0;swimlaneHead=0;swimlaneBody=0;top=0;left=0;bottom=0;right=0;collapsible=0;dropTarget=0;fillColor=none;points=[[0,0.5],[1,0.5]];portConstraint=eastwest;rounded=1;sketch=1;fontFamily=Comic Sans MS;fontSize=20;fontColor=#663300;strokeColor=#E07A5F;" vertex="1" parent="wTSnbn3DcDOjPf0Wo8Gv-142">
          <mxGeometry y="125" width="30" height="25" as="geometry" />
        </mxCell>
        <mxCell id="wTSnbn3DcDOjPf0Wo8Gv-154" value="" style="shape=partialRectangle;html=1;whiteSpace=wrap;connectable=0;overflow=hidden;fillColor=none;top=0;left=0;bottom=0;right=0;pointerEvents=1;rounded=1;sketch=1;fontFamily=Comic Sans MS;fontSize=20;fontColor=#663300;strokeColor=#E07A5F;" vertex="1" parent="wTSnbn3DcDOjPf0Wo8Gv-153">
          <mxGeometry width="30" height="25" as="geometry">
            <mxRectangle width="30" height="25" as="alternateBounds" />
          </mxGeometry>
        </mxCell>
        <mxCell id="wTSnbn3DcDOjPf0Wo8Gv-155" value="" style="shape=tableRow;horizontal=0;startSize=0;swimlaneHead=0;swimlaneBody=0;top=0;left=0;bottom=0;right=0;collapsible=0;dropTarget=0;fillColor=none;points=[[0,0.5],[1,0.5]];portConstraint=eastwest;rounded=1;sketch=1;fontFamily=Comic Sans MS;fontSize=20;fontColor=#663300;strokeColor=#E07A5F;" vertex="1" parent="wTSnbn3DcDOjPf0Wo8Gv-142">
          <mxGeometry y="150" width="30" height="25" as="geometry" />
        </mxCell>
        <mxCell id="wTSnbn3DcDOjPf0Wo8Gv-156" value="" style="shape=partialRectangle;html=1;whiteSpace=wrap;connectable=0;overflow=hidden;fillColor=none;top=0;left=0;bottom=0;right=0;pointerEvents=1;rounded=1;sketch=1;fontFamily=Comic Sans MS;fontSize=20;fontColor=#663300;strokeColor=#E07A5F;" vertex="1" parent="wTSnbn3DcDOjPf0Wo8Gv-155">
          <mxGeometry width="30" height="25" as="geometry">
            <mxRectangle width="30" height="25" as="alternateBounds" />
          </mxGeometry>
        </mxCell>
        <mxCell id="wTSnbn3DcDOjPf0Wo8Gv-157" value="" style="shape=tableRow;horizontal=0;startSize=0;swimlaneHead=0;swimlaneBody=0;top=0;left=0;bottom=0;right=0;collapsible=0;dropTarget=0;fillColor=none;points=[[0,0.5],[1,0.5]];portConstraint=eastwest;rounded=1;sketch=1;fontFamily=Comic Sans MS;fontSize=20;fontColor=#663300;strokeColor=#E07A5F;" vertex="1" parent="wTSnbn3DcDOjPf0Wo8Gv-142">
          <mxGeometry y="175" width="30" height="25" as="geometry" />
        </mxCell>
        <mxCell id="wTSnbn3DcDOjPf0Wo8Gv-158" value="" style="shape=partialRectangle;html=1;whiteSpace=wrap;connectable=0;overflow=hidden;fillColor=none;top=0;left=0;bottom=0;right=0;pointerEvents=1;rounded=1;sketch=1;fontFamily=Comic Sans MS;fontSize=20;fontColor=#663300;strokeColor=#E07A5F;" vertex="1" parent="wTSnbn3DcDOjPf0Wo8Gv-157">
          <mxGeometry width="30" height="25" as="geometry">
            <mxRectangle width="30" height="25" as="alternateBounds" />
          </mxGeometry>
        </mxCell>
        <mxCell id="wTSnbn3DcDOjPf0Wo8Gv-159" value="" style="shape=curlyBracket;whiteSpace=wrap;html=1;rounded=1;flipH=1;sketch=0;fontFamily=Comic Sans MS;fontSize=19;fontColor=#663300;strokeColor=#003300;fillColor=#F2CC8F;rotation=-180;" vertex="1" parent="1">
          <mxGeometry x="670" y="78" width="30" height="206" as="geometry" />
        </mxCell>
        <mxCell id="wTSnbn3DcDOjPf0Wo8Gv-160" value="" style="shape=curlyBracket;whiteSpace=wrap;html=1;rounded=1;flipH=1;sketch=0;fontFamily=Comic Sans MS;fontSize=19;fontColor=#663300;strokeColor=#003300;fillColor=#F2CC8F;rotation=-180;" vertex="1" parent="1">
          <mxGeometry x="680" y="299" width="20" height="170" as="geometry" />
        </mxCell>
        <mxCell id="wTSnbn3DcDOjPf0Wo8Gv-161" value="" style="shape=curlyBracket;whiteSpace=wrap;html=1;rounded=1;flipH=1;sketch=0;fontFamily=Comic Sans MS;fontSize=19;fontColor=#663300;strokeColor=#003300;fillColor=#F2CC8F;rotation=-180;" vertex="1" parent="1">
          <mxGeometry x="680" y="484" width="20" height="185" as="geometry" />
        </mxCell>
        <mxCell id="wTSnbn3DcDOjPf0Wo8Gv-162" value="线程 A" style="text;html=1;strokeColor=none;fillColor=none;align=center;verticalAlign=middle;whiteSpace=wrap;rounded=0;sketch=0;fontFamily=Comic Sans MS;fontSize=19;fontColor=#663300;" vertex="1" parent="1">
          <mxGeometry x="600" y="166" width="70" height="30" as="geometry" />
        </mxCell>
        <mxCell id="wTSnbn3DcDOjPf0Wo8Gv-163" value="线程 C" style="text;html=1;strokeColor=none;fillColor=none;align=center;verticalAlign=middle;whiteSpace=wrap;rounded=0;sketch=0;fontFamily=Comic Sans MS;fontSize=19;fontColor=#663300;" vertex="1" parent="1">
          <mxGeometry x="590" y="561.5" width="70" height="30" as="geometry" />
        </mxCell>
        <mxCell id="wTSnbn3DcDOjPf0Wo8Gv-164" value="线程 B" style="text;html=1;strokeColor=none;fillColor=none;align=center;verticalAlign=middle;whiteSpace=wrap;rounded=0;sketch=0;fontFamily=Comic Sans MS;fontSize=19;fontColor=#663300;" vertex="1" parent="1">
          <mxGeometry x="590" y="369" width="70" height="30" as="geometry" />
        </mxCell>
        <mxCell id="wTSnbn3DcDOjPf0Wo8Gv-165" style="edgeStyle=orthogonalEdgeStyle;curved=0;rounded=1;sketch=1;orthogonalLoop=1;jettySize=auto;html=1;fontFamily=Comic Sans MS;fontSize=19;fontColor=#663300;strokeColor=#E07A5F;fillColor=#F2CC8F;" edge="1" parent="1">
          <mxGeometry relative="1" as="geometry">
            <mxPoint x="860" y="136.5" as="targetPoint" />
            <mxPoint x="820" y="136.5" as="sourcePoint" />
          </mxGeometry>
        </mxCell>
        <mxCell id="wTSnbn3DcDOjPf0Wo8Gv-166" style="edgeStyle=orthogonalEdgeStyle;curved=0;rounded=1;sketch=1;orthogonalLoop=1;jettySize=auto;html=1;fontFamily=Comic Sans MS;fontSize=19;fontColor=#663300;strokeColor=#E07A5F;fillColor=#F2CC8F;" edge="1" source="wTSnbn3DcDOjPf0Wo8Gv-167" parent="1">
          <mxGeometry relative="1" as="geometry">
            <mxPoint x="930" y="136.5" as="targetPoint" />
          </mxGeometry>
        </mxCell>
        <mxCell id="wTSnbn3DcDOjPf0Wo8Gv-167" value="" style="shape=tableRow;horizontal=0;startSize=0;swimlaneHead=0;swimlaneBody=0;top=0;left=0;bottom=0;right=0;collapsible=0;dropTarget=0;fillColor=#76608a;points=[[0,0.5],[1,0.5]];portConstraint=eastwest;rounded=1;sketch=0;fontFamily=Comic Sans MS;fontSize=20;fontColor=#ffffff;strokeColor=#432D57;" vertex="1" parent="1">
          <mxGeometry x="860" y="126" width="30" height="21" as="geometry" />
        </mxCell>
        <mxCell id="wTSnbn3DcDOjPf0Wo8Gv-168" value="" style="shape=partialRectangle;html=1;whiteSpace=wrap;connectable=0;overflow=hidden;fillColor=#F2CC8F;top=0;left=0;bottom=0;right=0;pointerEvents=1;rounded=1;sketch=0;fontFamily=Comic Sans MS;fontSize=20;fontColor=#000000;strokeColor=#BD7000;shadow=1;" vertex="1" parent="wTSnbn3DcDOjPf0Wo8Gv-167">
          <mxGeometry width="30" height="21" as="geometry">
            <mxRectangle width="30" height="21" as="alternateBounds" />
          </mxGeometry>
        </mxCell>
        <mxCell id="wTSnbn3DcDOjPf0Wo8Gv-169" value="" style="shape=tableRow;horizontal=0;startSize=0;swimlaneHead=0;swimlaneBody=0;top=0;left=0;bottom=0;right=0;collapsible=0;dropTarget=0;fillColor=#76608a;points=[[0,0.5],[1,0.5]];portConstraint=eastwest;rounded=1;sketch=0;fontFamily=Comic Sans MS;fontSize=20;fontColor=#ffffff;strokeColor=#432D57;" vertex="1" parent="1">
          <mxGeometry x="790" y="126" width="30" height="21" as="geometry" />
        </mxCell>
        <mxCell id="wTSnbn3DcDOjPf0Wo8Gv-170" value="" style="shape=partialRectangle;html=1;whiteSpace=wrap;connectable=0;overflow=hidden;fillColor=#F2CC8F;top=0;left=0;bottom=0;right=0;pointerEvents=1;rounded=1;sketch=0;fontFamily=Comic Sans MS;fontSize=20;fontColor=#000000;strokeColor=#BD7000;shadow=1;" vertex="1" parent="wTSnbn3DcDOjPf0Wo8Gv-169">
          <mxGeometry width="30" height="21" as="geometry">
            <mxRectangle width="30" height="21" as="alternateBounds" />
          </mxGeometry>
        </mxCell>
        <mxCell id="wTSnbn3DcDOjPf0Wo8Gv-171" value="" style="shape=tableRow;horizontal=0;startSize=0;swimlaneHead=0;swimlaneBody=0;top=0;left=0;bottom=0;right=0;collapsible=0;dropTarget=0;fillColor=#76608a;points=[[0,0.5],[1,0.5]];portConstraint=eastwest;rounded=1;sketch=0;fontFamily=Comic Sans MS;fontSize=20;fontColor=#ffffff;strokeColor=#432D57;" vertex="1" parent="1">
          <mxGeometry x="930" y="126" width="30" height="21" as="geometry" />
        </mxCell>
        <mxCell id="wTSnbn3DcDOjPf0Wo8Gv-172" value="" style="shape=partialRectangle;html=1;whiteSpace=wrap;connectable=0;overflow=hidden;fillColor=#F2CC8F;top=0;left=0;bottom=0;right=0;pointerEvents=1;rounded=1;sketch=0;fontFamily=Comic Sans MS;fontSize=20;fontColor=#000000;strokeColor=#BD7000;" vertex="1" parent="wTSnbn3DcDOjPf0Wo8Gv-171">
          <mxGeometry width="30" height="21" as="geometry">
            <mxRectangle width="30" height="21" as="alternateBounds" />
          </mxGeometry>
        </mxCell>
        <mxCell id="wTSnbn3DcDOjPf0Wo8Gv-173" style="edgeStyle=orthogonalEdgeStyle;curved=0;rounded=1;sketch=1;orthogonalLoop=1;jettySize=auto;html=1;entryX=0;entryY=0.5;entryDx=0;entryDy=0;fontFamily=Comic Sans MS;fontSize=19;fontColor=#663300;strokeColor=#E07A5F;fillColor=#F2CC8F;" edge="1" source="wTSnbn3DcDOjPf0Wo8Gv-113" target="wTSnbn3DcDOjPf0Wo8Gv-169" parent="1">
          <mxGeometry relative="1" as="geometry" />
        </mxCell>
        <mxCell id="wTSnbn3DcDOjPf0Wo8Gv-194" value="&lt;font style=&quot;font-size: 18px;&quot;&gt;将table元素所在链表或红黑树的node搬运完之后会在table中插入一个标志节点：ForwardingNode&lt;/font&gt;" style="shape=callout;whiteSpace=wrap;html=1;perimeter=calloutPerimeter;rounded=1;shadow=1;sketch=0;fontFamily=Comic Sans MS;fontSize=19;fontColor=#663300;strokeColor=#000000;fillColor=#F2CC8F;position2=0.32;" vertex="1" parent="1">
          <mxGeometry x="630" y="-50" width="280" height="110" as="geometry" />
        </mxCell>
      </root>
    </mxGraphModel>
  </diagram>
</mxfile>
